<svg id="Capa_1" enable-background="new 0 0 509 509" height="512" viewBox="0 0 509 509" width="512" xmlns="http://www.w3.org/2000/svg"><g><path d="m210 180c24.813 0 45-20.186 45-45s-20.187-45-45-45-45 20.187-45 45 20.187 45 45 45zm0-60c8.271 0 15 6.729 15 15s-6.729 15-15 15-15-6.729-15-15 6.729-15 15-15z"/><path d="m449 164v-44h-59v-90h-390v330h89v59h45v60h375v-315zm-401.758 166 88.706-105.339 52.839 52.839-52.5 52.5zm162.758-31.287 10.606-10.606 48.317-48.317 74.293 90.21h-164.503zm150-238.713v243.189l-88.924-107.978-61.076 61.076-75.948-75.948-104.052 123.561v-243.9zm-241 300h271v-210h29v239h-300zm360 89h-315v-30h285v-225h30z"/></g></svg>